STARTFONT 2.1
FONT -Monotype-Arial-Bold-R-Normal--36-360-75-75-P-195-iso8859-5
SIZE 36 75 75
FONTBOUNDINGBOX 42 41 -1 -8

STARTPROPERTIES 24
FOUNDRY "Monotype"
FAMILY_NAME "Arial"
WEIGHT_NAME "Bold"
SLANT "R"
SETWIDTH_NAME "Normal"
ADD_STYLE_NAME ""
PIXEL_SIZE 36
POINT_SIZE 360
RESOLUTION_X 75
RESOLUTION_Y 75
SPACING "P"
AVERAGE_WIDTH 195
CHARSET_REGISTRY "iso8859"
CHARSET_ENCODING "5"
FACE_NAME "Arial Bold ISO Latin Cyrillic"
_DEC_DEVICE_FONTNAMES "PS=arial-b-latcyrillic"
COPYRIGHT "Copyright (c) 1993 Monotype Typography Ltd."
CAP_HEIGHT 29
X_HEIGHT 21
WEIGHT 10
QUAD_WIDTH 27
DEFAULT_CHAR 160
FONT_DESCENT 8
FONT_ASCENT 33
ENDPROPERTIES

CHARS 191

STARTCHAR space
ENCODING 32
SWIDTH 278 0
DWIDTH 11 0
BBX 0 0 0 0
BITMAP
ENDCHAR

STARTCHAR exclam
ENCODING 33
SWIDTH 333 0
DWIDTH 13 0
BBX 6 27 3 0
BITMAP
FC
FC
FC
FC
FC
FC
FC
FC
FC
FC
78
78
78
78
78
78
78
78
78
38
00
00
F8
F8
F8
F8
F8
ENDCHAR

STARTCHAR quotedbl
ENCODING 34
SWIDTH 474 0
DWIDTH 18 0
BBX 14 10 2 17
BITMAP
FCFC
FCFC
FCFC
FCFC
FCFC
FCFC
F87C
7878
7878
7878
ENDCHAR

STARTCHAR numbersign
ENCODING 35
SWIDTH 556 0
DWIDTH 21 0
BBX 21 28 0 0
BITMAP
01E1F0
01E1E0
01E1E0
03E1E0
03C3E0
03C3E0
03C3C0
FFFFF8
FFFFF8
FFFFF8
FFFFF8
078780
078780
0F8780
0F0F80
0F0F80
0F0F00
FFFFF8
FFFFF8
FFFFF8
FFFFF8
1E1E00
1E1E00
3E1E00
3C1E00
3C3E00
3C3C00
3C3C00
ENDCHAR

STARTCHAR dollar
ENCODING 36
SWIDTH 556 0
DWIDTH 21 0
BBX 19 33 1 -4
BITMAP
00E000
01F000
07FC00
1FFF00
1FFF80
3F7F80
3EEFC0
7CE7C0
7CE000
7CE000
7CE000
3F6000
3FE000
1FF800
1FFE00
07FF80
03FFC0
00FFC0
00EFE0
00E3E0
00E3E0
F8E3E0
7CE3E0
7EE3C0
7EE7C0
3FFF80
1FFF80
0FFF00
07FC00
00E000
00E000
00E000
00E000
ENDCHAR

STARTCHAR percent
ENCODING 37
SWIDTH 889 0
DWIDTH 34 0
BBX 30 28 2 0
BITMAP
1F800F00
3FC01E00
7FE01E00
79F03C00
F0F03C00
F0F07800
F0F07800
F0F0F000
F0F0F000
F0F1E000
79F1E000
7FE3C000
3FC3C000
1F878000
000787E0
000F0FF0
000F1FF8
001E1E7C
001E3C3C
003C3C3C
003C3C3C
00783C3C
00783C3C
00F03C3C
00F01E7C
01E01FF8
01E00FF0
03C007E0
ENDCHAR

STARTCHAR ampersand
ENCODING 38
SWIDTH 722 0
DWIDTH 27 0
BBX 24 29 2 -1
BITMAP
00F800
07FE00
0FFF00
0FFF80
1F8FC0
1F07C0
1F07C0
1F87C0
0F8F80
0FDF80
07FF00
03FE00
07FC00
1FF800
3FFC00
7F7E38
7E7F7E
FC3F7C
F81FFC
F80FF8
F80FF8
F803F0
FC07F8
FE1FFE
7FFFFF
3FFFBF
1FFE3E
07FC0C
000004
ENDCHAR

STARTCHAR quoteright
ENCODING 39
SWIDTH 278 0
DWIDTH 11 0
BBX 6 11 2 16
BITMAP
7C
7C
7C
7C
7C
1C
1C
1C
F8
70
60
ENDCHAR

STARTCHAR parenleft
ENCODING 40
SWIDTH 333 0
DWIDTH 13 0
BBX 9 36 2 -8
BITMAP
0380
0780
0F00
0F00
1F00
1E00
3E00
3E00
3C00
7C00
7C00
7C00
7800
F800
F800
F800
F800
F800
F800
F800
F800
F800
F800
7800
7C00
7C00
7C00
3C00
3E00
3E00
1E00
1F00
0F00
0F80
0780
0380
ENDCHAR

STARTCHAR parenright
ENCODING 41
SWIDTH 333 0
DWIDTH 13 0
BBX 9 36 2 -8
BITMAP
E000
F000
7800
7800
7C00
3C00
3E00
1E00
1E00
1F00
1F00
1F00
0F80
0F80
0F80
0F80
0F80
0F80
0F80
0F80
0F80
0F80
0F80
0F00
1F00
1F00
1F00
1E00
3E00
3E00
3C00
7C00
7800
7800
F000
E000
ENDCHAR

STARTCHAR asterisk
ENCODING 42
SWIDTH 389 0
DWIDTH 15 0
BBX 13 13 1 15
BITMAP
0700
0700
0700
4710
F778
FFF8
77F8
0F80
1FC0
3DE0
7CF0
38E0
1040
ENDCHAR

STARTCHAR plus
ENCODING 43
SWIDTH 584 0
DWIDTH 22 0
BBX 19 19 2 4
BITMAP
01F000
01F000
01F000
01F000
01F000
01F000
01F000
FFFFE0
FFFFE0
FFFFE0
FFFFE0
FFFFE0
01F000
01F000
01F000
01F000
01F000
01F000
01F000
ENDCHAR

STARTCHAR comma
ENCODING 44
SWIDTH 278 0
DWIDTH 11 0
BBX 6 11 2 -6
BITMAP
7C
7C
7C
7C
7C
1C
1C
1C
F8
70
60
ENDCHAR

STARTCHAR minus
ENCODING 45
SWIDTH 584 0
DWIDTH 22 0
BBX 19 5 2 11
BITMAP
FFFFE0
FFFFE0
FFFFE0
FFFFE0
FFFFE0
ENDCHAR

STARTCHAR period
ENCODING 46
SWIDTH 278 0
DWIDTH 11 0
BBX 5 5 3 0
BITMAP
F8
F8
F8
F8
F8
ENDCHAR

STARTCHAR slash
ENCODING 47
SWIDTH 278 0
DWIDTH 11 0
BBX 11 28 0 0
BITMAP
01E0
03C0
03C0
03C0
03C0
0780
0780
0780
0780
0F00
0F00
0F00
0F00
1E00
1E00
1E00
1E00
1C00
3C00
3C00
3C00
3800
7800
7800
7800
7000
F000
F000
ENDCHAR

STARTCHAR zero
ENCODING 48
SWIDTH 556 0
DWIDTH 21 0
BBX 17 28 2 0
BITMAP
07F000
1FFC00
1FFC00
3FFE00
7E3F00
7C1F00
7C1F00
FC1F80
F80F80
F80F80
F80F80
F80F80
F80F80
F80F80
F80F80
F80F80
F80F80
F80F80
F80F80
FC0F80
FC1F80
7C1F00
7C1F00
7E3F00
3FFE00
1FFC00
0FF800
07F000
ENDCHAR

STARTCHAR one
ENCODING 49
SWIDTH 556 0
DWIDTH 21 0
BBX 12 28 3 0
BITMAP
00F0
01F0
01F0
03F0
07F0
1FF0
7FF0
FFF0
FDF0
F9F0
E1F0
81F0
01F0
01F0
01F0
01F0
01F0
01F0
01F0
01F0
01F0
01F0
01F0
01F0
01F0
01F0
01F0
01F0
ENDCHAR

STARTCHAR two
ENCODING 50
SWIDTH 556 0
DWIDTH 21 0
BBX 18 28 1 0
BITMAP
03F800
0FFE00
1FFF00
3FFF80
7F1FC0
7E0FC0
7C07C0
FC07C0
0C07C0
0007C0
000FC0
000F80
001F80
003F00
007F00
00FE00
01FC00
03F800
07F000
0FE000
1FC000
3F8000
3F0000
7FFFC0
7FFFC0
FFFFC0
FFFFC0
FFFFC0
ENDCHAR

STARTCHAR three
ENCODING 51
SWIDTH 556 0
DWIDTH 21 0
BBX 18 28 1 0
BITMAP
07F800
0FFC00
1FFE00
3FFF00
7F3F80
7C1F80
7C0F80
3C0F80
000F80
001F80
003F00
01FE00
01F800
01FE00
01FF00
001F80
000FC0
0007C0
0007C0
0007C0
F807C0
FC0FC0
7C0FC0
7F3F80
3FFF80
1FFF00
0FFC00
03F000
ENDCHAR

STARTCHAR four
ENCODING 52
SWIDTH 556 0
DWIDTH 21 0
BBX 19 28 1 0
BITMAP
001F00
001F00
003F00
007F00
007F00
00FF00
01FF00
01FF00
03EF00
07DF00
0F9F00
0F9F00
1F1F00
3E1F00
3E1F00
7C1F00
F81F00
FFFFE0
FFFFE0
FFFFE0
FFFFE0
FFFFE0
001F00
001F00
001F00
001F00
001F00
001F00
ENDCHAR

STARTCHAR five
ENCODING 53
SWIDTH 556 0
DWIDTH 21 0
BBX 18 27 2 0
BITMAP
1FFF80
1FFF80
1FFF80
1FFF80
3FFF80
3E0000
3E0000
3E0000
3E0000
7DF800
7FFE00
7FFF00
7FFF80
7E1F80
380FC0
000FC0
0007C0
0007C0
0007C0
1807C0
FC0FC0
FC0F80
7E1F80
7FFF00
3FFE00
1FFC00
07F000
ENDCHAR

STARTCHAR six
ENCODING 54
SWIDTH 556 0
DWIDTH 21 0
BBX 18 28 2 0
BITMAP
03F800
07FE00
1FFF00
1FFF80
3F1F80
3E0F80
7E0FC0
7C0000
7C0000
FC0000
FCF800
F9FE00
FFFF00
FFFF80
FF1F80
FE0FC0
FC07C0
FC07C0
FC07C0
7C07C0
7C07C0
7E07C0
7E0FC0
3F1F80
3FFF80
1FFF00
0FFE00
03F800
ENDCHAR

STARTCHAR seven
ENCODING 55
SWIDTH 556 0
DWIDTH 21 0
BBX 18 27 2 0
BITMAP
FFFFC0
FFFFC0
FFFFC0
FFFFC0
FFEF80
001F00
003E00
003E00
007C00
00F800
00F800
01F000
01F000
03E000
03E000
03E000
07C000
07C000
07C000
0F8000
0F8000
0F8000
0F8000
0F8000
0F0000
1F0000
1F0000
ENDCHAR

STARTCHAR eight
ENCODING 56
SWIDTH 556 0
DWIDTH 21 0
BBX 18 28 2 0
BITMAP
07F800
0FFC00
1FFE00
3FFF00
7F1F80
7C0F80
7C0F80
7C0F80
7C0F80
7C0F80
3F3F00
3FFE00
0FF800
1FFE00
3FFF00
7E1F80
7C0F80
F807C0
F807C0
F807C0
F807C0
FC07C0
FC0FC0
7E1F80
7FFF80
3FFF00
0FFE00
07F800
ENDCHAR

STARTCHAR nine
ENCODING 57
SWIDTH 556 0
DWIDTH 21 0
BBX 18 28 1 0
BITMAP
07F000
1FFC00
3FFE00
3FFF00
7E3F00
FC1F80
F80F80
F80F80
F80FC0
F80FC0
F80FC0
F80FC0
7C1FC0
7E3FC0
3FFFC0
3FFFC0
1FF7C0
07CFC0
000FC0
000F80
040F80
FC1F80
7C1F00
7E3F00
3FFE00
3FFE00
1FF800
07F000
ENDCHAR

STARTCHAR colon
ENCODING 58
SWIDTH 333 0
DWIDTH 13 0
BBX 5 20 4 0
BITMAP
F8
F8
F8
F8
F8
00
00
00
00
00
00
00
00
00
00
F8
F8
F8
F8
F8
ENDCHAR

STARTCHAR semicolon
ENCODING 59
SWIDTH 333 0
DWIDTH 13 0
BBX 6 26 3 -6
BITMAP
7C
7C
7C
7C
7C
00
00
00
00
00
00
00
00
00
00
7C
7C
7C
7C
7C
1C
1C
1C
F8
70
60
ENDCHAR

STARTCHAR less
ENCODING 60
SWIDTH 584 0
DWIDTH 22 0
BBX 18 21 2 3
BITMAP
000040
0001C0
0007C0
001FC0
00FFC0
03FFC0
0FFF00
3FF800
FFE000
FF0000
F80000
FF0000
FFE000
7FF800
0FFF00
03FFC0
00FFC0
001FC0
0007C0
0001C0
000040
ENDCHAR

STARTCHAR equal
ENCODING 61
SWIDTH 584 0
DWIDTH 22 0
BBX 19 13 2 7
BITMAP
FFFFE0
FFFFE0
FFFFE0
FFFFE0
FFFFE0
000000
000000
000000
FFFFE0
FFFFE0
FFFFE0
FFFFE0
FFFFE0
ENDCHAR

STARTCHAR greater
ENCODING 62
SWIDTH 584 0
DWIDTH 22 0
BBX 18 21 2 3
BITMAP
800000
E00000
F80000
FE0000
FFC000
FFF000
3FFC00
07FF00
00FFC0
003FC0
0007C0
003FC0
00FFC0
07FF80
1FFE00
FFF000
FFC000
FF0000
F80000
E00000
800000
ENDCHAR

STARTCHAR question
ENCODING 63
SWIDTH 611 0
DWIDTH 23 0
BBX 19 28 2 0
BITMAP
03F800
0FFE00
1FFF80
3FFFC0
7F0FC0
7C07E0
FC03E0
F803E0
1803E0
0003E0
0007E0
000FC0
001F80
003F00
007E00
00FC00
00F800
01F000
01F000
01F000
01F000
000000
000000
01F000
01F000
01F000
01F000
01F000
ENDCHAR

STARTCHAR at
ENCODING 64
SWIDTH 975 0
DWIDTH 37 0
BBX 36 36 1 -8
BITMAP
0007FF8000
001FFFE000
007FFFF800
01FF03FC00
03F8007E00
07C0001F00
0F80000F80
1F000007C0
1E03F1F3C0
3C0FFDE1C0
3C1FFFE1E0
783F1FE1E0
787E0FE0E0
707C07C0E0
F0F807C0E0
F0F807C0E0
F1F007C0E0
E1F007C1E0
E1F00781E0
E1F00F83C0
E1F00F83C0
E1F00F8780
F1F01F8F80
F0F83F9F00
70FFFFFE00
787FFFFC00
783FCFF000
3C0F07C000
1E000001F0
1F000003E0
0FC00007C0
07F0003F80
01FFFFFF00
007FFFFC00
001FFFF000
0001FF0000
ENDCHAR

STARTCHAR A
ENCODING 65
SWIDTH 722 0
DWIDTH 27 0
BBX 27 27 0 0
BITMAP
001F8000
003F8000
003FC000
007FC000
007FC000
007FE000
00FBE000
00FBF000
01FBF000
01F1F000
01F1F800
03F1F800
03E0FC00
07E0FC00
07C07C00
07C07E00
0FFFFE00
0FFFFF00
1FFFFF00
1FFFFF00
1FFFFF80
3F001F80
3F000FC0
7E000FC0
7E000FC0
7C0007E0
FC0007E0
ENDCHAR

STARTCHAR B
ENCODING 66
SWIDTH 722 0
DWIDTH 27 0
BBX 23 27 3 0
BITMAP
FFFF00
FFFFC0
FFFFE0
FFFFF0
FFFFF8
F801F8
F800F8
F800F8
F800F8
F801F8
F803F0
FFFFF0
FFFF80
FFFFE0
FFFFF0
FFFFF8
F800FC
F8007C
F8007E
F8007E
F8007E
F800FC
FFFFFC
FFFFF8
FFFFF8
FFFFE0
FFFF80
ENDCHAR

STARTCHAR C
ENCODING 67
SWIDTH 722 0
DWIDTH 27 0
BBX 24 28 2 0
BITMAP
003F00
01FFE0
07FFF0
0FFFF8
1FFFFC
3FC0FE
3F007E
7E003F
7E003C
7C0000
7C0000
FC0000
FC0000
FC0000
FC0000
FC0000
FC0000
7C0000
7E003C
7E003F
7E007E
3F007E
3F81FE
1FFFFC
0FFFF8
07FFF0
01FFC0
003F00
ENDCHAR

STARTCHAR D
ENCODING 68
SWIDTH 722 0
DWIDTH 27 0
BBX 23 27 3 0
BITMAP
FFFC00
FFFF80
FFFFE0
FFFFF0
FFFFF8
F803F8
F801FC
F800FC
F800FC
F8007C
F8007E
F8007E
F8007E
F8007E
F8007E
F8007E
F8007E
F8007C
F8007C
F800FC
F801FC
F803F8
FFFFF0
FFFFF0
FFFFE0
FFFF80
FFFC00
ENDCHAR

STARTCHAR E
ENCODING 69
SWIDTH 667 0
DWIDTH 25 0
BBX 20 27 3 0
BITMAP
FFFFF0
FFFFF0
FFFFF0
FFFFF0
FFFFF0
F80000
F80000
F80000
F80000
F80000
FFFFE0
FFFFE0
FFFFE0
FFFFE0
FFFFE0
F80000
F80000
F80000
F80000
F80000
F80000
F80000
FFFFF0
FFFFF0
FFFFF0
FFFFF0
FFFFF0
ENDCHAR

STARTCHAR F
ENCODING 70
SWIDTH 611 0
DWIDTH 23 0
BBX 18 27 3 0
BITMAP
FFFFC0
FFFFC0
FFFFC0
FFFFC0
FFFFC0
F80000
F80000
F80000
F80000
F80000
F80000
FFFF80
FFFF80
FFFF80
FFFF80
FFFF80
F80000
F80000
F80000
F80000
F80000
F80000
F80000
F80000
F80000
F80000
F80000
ENDCHAR

STARTCHAR G
ENCODING 71
SWIDTH 778 0
DWIDTH 30 0
BBX 25 28 2 0
BITMAP
003F8000
01FFF000
07FFFC00
0FFFFE00
1FFFFE00
1FC07F00
3F803F00
3F001F80
7E001E00
7E000000
7C000000
FC000000
FC000000
FC03FF80
FC03FF80
FC03FF80
FC03FF80
7C03FF80
7E000F80
7E000F80
7F000F80
3F801F80
1FC07F80
1FFFFF80
0FFFFF00
03FFFE00
01FFF000
001F8000
ENDCHAR

STARTCHAR H
ENCODING 72
SWIDTH 722 0
DWIDTH 27 0
BBX 21 27 3 0
BITMAP
F800F8
F800F8
F800F8
F800F8
F800F8
F800F8
F800F8
F800F8
F800F8
F800F8
FFFFF8
FFFFF8
FFFFF8
FFFFF8
FFFFF8
F800F8
F800F8
F800F8
F800F8
F800F8
F800F8
F800F8
F800F8
F800F8
F800F8
F800F8
F800F8
ENDCHAR

STARTCHAR I
ENCODING 73
SWIDTH 278 0
DWIDTH 11 0
BBX 5 27 3 0
BITMAP
F8
F8
F8
F8
F8
F8
F8
F8
F8
F8
F8
F8
F8
F8
F8
F8
F8
F8
F8
F8
F8
F8
F8
F8
F8
F8
F8
ENDCHAR

STARTCHAR J
ENCODING 74
SWIDTH 556 0
DWIDTH 21 0
BBX 17 27 1 0
BITMAP
000F80
000F80
000F80
000F80
000F80
000F80
000F80
000F80
000F80
000F80
000F80
000F80
000F80
000F80
000F80
000F80
000F80
000F80
F80F80
F80F80
FC1F80
FC1F80
7FFF00
7FFF00
3FFE00
1FF800
03E000
ENDCHAR

STARTCHAR K
ENCODING 75
SWIDTH 722 0
DWIDTH 27 0
BBX 24 27 3 0
BITMAP
F800FF
F801FC
F803F8
F807F0
F80FE0
F81FC0
F83FC0
F87F80
F8FF00
F8FE00
F9FC00
FBFC00
FFFE00
FFFE00
FFDF00
FFBF80
FF1F80
FE0FC0
FC0FE0
F807E0
F807F0
F803F8
F801F8
F801FC
F800FE
F800FE
F8007F
ENDCHAR

STARTCHAR L
ENCODING 76
SWIDTH 611 0
DWIDTH 23 0
BBX 19 27 3 0
BITMAP
F80000
F80000
F80000
F80000
F80000
F80000
F80000
F80000
F80000
F80000
F80000
F80000
F80000
F80000
F80000
F80000
F80000
F80000
F80000
F80000
F80000
F80000
FFFFE0
FFFFE0
FFFFE0
FFFFE0
FFFFE0
ENDCHAR

STARTCHAR M
ENCODING 77
SWIDTH 833 0
DWIDTH 32 0
BBX 26 27 3 0
BITMAP
FF003FC0
FF807FC0
FF807FC0
FF807FC0
FF807FC0
FFC0FFC0
FBC0FBC0
FBC0FBC0
FBC0F7C0
FBE1F7C0
FBE1F7C0
FBE1F7C0
F9E1E7C0
F9F3E7C0
F9F3E7C0
F9F3E7C0
F8FFC7C0
F8FBC7C0
F8FFC7C0
F87FC7C0
F87F87C0
F87F87C0
F87F87C0
F83F07C0
F83F07C0
F83F07C0
F83F07C0
ENDCHAR

STARTCHAR N
ENCODING 78
SWIDTH 722 0
DWIDTH 27 0
BBX 21 27 3 0
BITMAP
FC00F8
FC00F8
FE00F8
FE00F8
FF00F8
FF80F8
FF80F8
FFC0F8
FFC0F8
FBE0F8
FBF0F8
FBF0F8
F9F8F8
F9F8F8
F8FCF8
F87EF8
F87EF8
F83F78
F81FF8
F81FF8
F80FF8
F80FF8
F807F8
F803F8
F803F8
F801F8
F801F8
ENDCHAR

STARTCHAR O
ENCODING 79
SWIDTH 778 0
DWIDTH 30 0
BBX 27 28 1 0
BITMAP
003F8000
01FFF000
07FFFC00
0FFFFE00
1FFFFF00
3FC07F80
3F801F80
7F001FC0
7E000FC0
7E0007C0
7C0007E0
FC0007E0
FC0007E0
FC0007E0
FC0007E0
FC0007E0
FC0007E0
7C0007C0
7E000FC0
7E000FC0
7F001FC0
3F803F80
1FC07F80
1FFFFF00
0FFFFE00
07FFFC00
01FFF000
003F8000
ENDCHAR

STARTCHAR P
ENCODING 80
SWIDTH 667 0
DWIDTH 25 0
BBX 21 27 3 0
BITMAP
FFFC00
FFFF80
FFFFE0
FFFFE0
FFFFF0
F803F8
F801F8
F801F8
F801F8
F801F8
F801F8
F807F0
FFFFF0
FFFFE0
FFFFC0
FFFF80
FFFC00
F80000
F80000
F80000
F80000
F80000
F80000
F80000
F80000
F80000
F80000
ENDCHAR

STARTCHAR Q
ENCODING 81
SWIDTH 778 0
DWIDTH 30 0
BBX 28 30 1 -2
BITMAP
003F8000
01FFF000
07FFFC00
0FFFFE00
1FFFFF00
3FC07F80
3F801F80
7F001FC0
7E000FC0
7E000FC0
FC0007E0
FC0007E0
FC0007E0
FC0007E0
FC0007E0
FC0007E0
FC0007E0
7C0007E0
7E020FC0
7E078FC0
7F0FEFC0
3F87FF80
1FC0FF80
1FFFFF00
0FFFFF80
07FFFFC0
01FFFFF0
001F87E0
000001E0
000000C0
ENDCHAR

STARTCHAR R
ENCODING 82
SWIDTH 722 0
DWIDTH 27 0
BBX 24 27 3 0
BITMAP
FFFF00
FFFFE0
FFFFF0
FFFFF8
FFFFF8
F801FC
F800FC
F800FC
F800FC
F800FC
F801F8
F803F8
FFFFF0
FFFFE0
FFFFC0
FFFE00
F83F00
F81FC0
F80FC0
F80FE0
F807F0
F803F8
F803F8
F801FC
F800FC
F8007E
F8007F
ENDCHAR

STARTCHAR S
ENCODING 83
SWIDTH 667 0
DWIDTH 25 0
BBX 22 28 1 0
BITMAP
00FC00
07FF80
1FFFE0
3FFFF0
3FFFF8
7E03F8
7C01F8
7C00FC
7E00C0
7F0000
7FE000
3FFE00
1FFFC0
0FFFE0
03FFF0
007FF8
0007FC
0001FC
7800FC
FC007C
FC007C
7E00FC
7F01FC
3FFFF8
3FFFF8
1FFFF0
07FFC0
00FC00
ENDCHAR

STARTCHAR T
ENCODING 84
SWIDTH 611 0
DWIDTH 23 0
BBX 21 27 1 0
BITMAP
FFFFF8
FFFFF8
FFFFF8
FFFFF8
FFFFF8
00F800
00F800
00F800
00F800
00F800
00F800
00F800
00F800
00F800
00F800
00F800
00F800
00F800
00F800
00F800
00F800
00F800
00F800
00F800
00F800
00F800
00F800
ENDCHAR

STARTCHAR U
ENCODING 85
SWIDTH 722 0
DWIDTH 27 0
BBX 21 27 3 0
BITMAP
F800F8
F800F8
F800F8
F800F8
F800F8
F800F8
F800F8
F800F8
F800F8
F800F8
F800F8
F800F8
F800F8
F800F8
F800F8
F800F8
F800F8
F800F8
FC00F8
FC01F8
FC01F8
7E03F0
7FFFF0
3FFFE0
1FFFC0
0FFF80
01FC00
ENDCHAR

STARTCHAR V
ENCODING 86
SWIDTH 667 0
DWIDTH 25 0
BBX 25 27 0 0
BITMAP
FC001F80
7C001F80
7E001F80
7E003F00
3F003F00
3F003E00
3F007E00
1F807E00
1F807C00
1F80FC00
0FC0FC00
0FC0F800
07C1F800
07E1F000
07E1F000
03E3F000
03F3E000
03F3E000
01F7E000
01FBC000
01FFC000
00FFC000
00FF8000
007F8000
007F0000
007F0000
003F0000
ENDCHAR

STARTCHAR W
ENCODING 87
SWIDTH 944 0
DWIDTH 36 0
BBX 36 27 0 0
BITMAP
FC01F803F0
FC03FC03E0
7C03FC03E0
7C03FC07E0
7E03FC07E0
7E07FE07C0
3E07FE07C0
3E07DE07C0
3F0FBE0FC0
3F0F9F0F80
1F0F9F0F80
1F0F9F0F80
1F1F1F1F80
1F9F0F9F00
0F9F0F9F00
0F9F0F9F00
0FBE079F00
0FDE07DE00
07FE07DE00
07FC07FE00
07FC03FE00
07FC03FC00
03FC03FC00
03F803FC00
03F801FC00
03F801F800
03F801F800
ENDCHAR

STARTCHAR X
ENCODING 88
SWIDTH 667 0
DWIDTH 25 0
BBX 25 27 0 0
BITMAP
7F003F00
3F007F00
3F807E00
1FC0FC00
0FC1FC00
0FE1F800
07E3F000
03F7F000
03FBE000
01FFC000
00FFC000
00FF8000
007F0000
007F0000
00FF8000
00FFC000
01FFC000
03FFE000
03F7F000
07E3F000
0FE1F800
0FC1FC00
1F80FC00
3F80FE00
3F007F00
7F003F00
FE003F80
ENDCHAR

STARTCHAR Y
ENCODING 89
SWIDTH 667 0
DWIDTH 25 0
BBX 25 27 0 0
BITMAP
FE001F80
7E003F00
7F007F00
3F007E00
1F80FC00
1FC0FC00
0FC1F800
07E1F800
07E3F000
03F7E000
03FBE000
01FFC000
00FF8000
00FF8000
007F0000
003E0000
003E0000
003E0000
003E0000
003E0000
003E0000
003E0000
003E0000
003E0000
003E0000
003E0000
003E0000
ENDCHAR

STARTCHAR Z
ENCODING 90
SWIDTH 611 0
DWIDTH 23 0
BBX 22 27 0 0
BITMAP
3FFFFC
3FFFFC
3FFFFC
3FFFFC
3FFDFC
0003F8
0007F0
000FE0
001FC0
001FC0
003F80
007F00
00FE00
01FC00
03F800
03F800
07F000
0FE000
1FC000
3F8000
7F0000
7E0000
FFFFFC
FFFFFC
FFFFFC
FFFFFC
FFFFFC
ENDCHAR

STARTCHAR bracketleft
ENCODING 91
SWIDTH 333 0
DWIDTH 13 0
BBX 9 35 3 -8
BITMAP
FF80
FF80
FF80
FF80
F800
F800
F800
F800
F800
F800
F800
F800
F800
F800
F800
F800
F800
F800
F800
F800
F800
F800
F800
F800
F800
F800
F800
F800
F800
F800
F800
FF80
FF80
FF80
FF80
ENDCHAR

STARTCHAR backslash
ENCODING 92
SWIDTH 278 0
DWIDTH 11 0
BBX 11 28 0 0
BITMAP
F000
F000
7000
7800
7800
7800
7800
3C00
3C00
3C00
3C00
1E00
1E00
1E00
1E00
0F00
0F00
0F00
0F00
0780
0780
0780
0780
03C0
03C0
03C0
03C0
01E0
ENDCHAR

STARTCHAR bracketright
ENCODING 93
SWIDTH 333 0
DWIDTH 13 0
BBX 9 35 1 -8
BITMAP
FF80
FF80
FF80
FF80
0F80
0F80
0F80
0F80
0F80
0F80
0F80
0F80
0F80
0F80
0F80
0F80
0F80
0F80
0F80
0F80
0F80
0F80
0F80
0F80
0F80
0F80
0F80
0F80
0F80
0F80
0F80
FF80
FF80
FF80
FF80
ENDCHAR

STARTCHAR asciicircum
ENCODING 94
SWIDTH 584 0
DWIDTH 22 0
BBX 18 15 2 13
BITMAP
01E000
03F000
03F000
03F800
07F800
07FC00
0FBC00
0F3E00
1F3E00
1F1F00
3E1F00
3E1F00
7C0F80
7C0F80
FC07C0
ENDCHAR

STARTCHAR underscore
ENCODING 95
SWIDTH 556 0
DWIDTH 21 0
BBX 21 3 0 -8
BITMAP
FFFFF8
FFFFF8
FFFFF8
ENDCHAR

STARTCHAR quoteleft
ENCODING 96
SWIDTH 278 0
DWIDTH 11 0
BBX 6 11 3 16
BITMAP
18
3C
70
E0
E0
E0
F8
F8
F8
F8
F8
ENDCHAR

STARTCHAR a
ENCODING 97
SWIDTH 556 0
DWIDTH 21 0
BBX 18 20 2 0
BITMAP
07F800
1FFE00
3FFF00
7FFF80
7C1F80
FC0F80
000F80
001F80
03FF80
1FFF80
7FEF80
7E0F80
F80F80
F80F80
F81F80
FC3F80
FFFF80
7FF780
3FE7C0
0F87C0
ENDCHAR

STARTCHAR b
ENCODING 98
SWIDTH 611 0
DWIDTH 23 0
BBX 19 27 3 0
BITMAP
F80000
F80000
F80000
F80000
F80000
F80000
F80000
F8FC00
FBFF00
FBFF80
FFFFC0
FE0FC0
FC07E0
FC07E0
F803E0
F803E0
F803E0
F803E0
F803E0
F803E0
FC07E0
FC07C0
FF1FC0
FFFF80
FBFF80
F9FF00
F8FC00
ENDCHAR

STARTCHAR c
ENCODING 99
SWIDTH 556 0
DWIDTH 21 0
BBX 18 20 2 0
BITMAP
03F800
0FFE00
1FFF00
3FFF80
7E0FC0
7C07C0
FC0700
F80000
F80000
F80000
F80000
F80000
FC0600
FC07C0
7C0FC0
7F1FC0
3FFF80
3FFF00
0FFE00
03F800
ENDCHAR

STARTCHAR d
ENCODING 100
SWIDTH 611 0
DWIDTH 23 0
BBX 19 27 2 0
BITMAP
0003E0
0003E0
0003E0
0003E0
0003E0
0003E0
0003E0
07E3E0
1FFBE0
3FFDE0
7FFFE0
7E0FE0
FC07E0
FC07E0
F803E0
F803E0
F803E0
F803E0
F803E0
FC03E0
FC07E0
7C07E0
7F1FE0
3FFFE0
3FFDE0
1FFBE0
07E3E0
ENDCHAR

STARTCHAR e
ENCODING 101
SWIDTH 556 0
DWIDTH 21 0
BBX 18 20 2 0
BITMAP
07F000
0FFC00
3FFF00
3FFF00
7E1F80
7C0F80
F807C0
F807C0
FFFFC0
FFFFC0
FFFFC0
F80000
F80000
FC0600
7C0FC0
7F1F80
3FFF80
1FFF00
0FFE00
03F800
ENDCHAR

STARTCHAR f
ENCODING 102
SWIDTH 333 0
DWIDTH 13 0
BBX 13 28 0 0
BITMAP
03F8
0FF8
0FF8
1FF8
1F80
1F00
1F00
1F00
FFF0
FFF0
FFF0
FFF0
1F00
1F00
1F00
1F00
1F00
1F00
1F00
1F00
1F00
1F00
1F00
1F00
1F00
1F00
1F00
1F00
ENDCHAR

STARTCHAR g
ENCODING 103
SWIDTH 611 0
DWIDTH 23 0
BBX 19 28 2 -8
BITMAP
07E3E0
1FFBE0
3FFDE0
3FFFE0
7F0FE0
7C07E0
FC07E0
FC03E0
F803E0
F803E0
F803E0
F803E0
FC03E0
FC07E0
7C0FE0
7F1FE0
3FFFE0
3FFBE0
1FF3E0
07E3E0
0003E0
4003E0
7E07E0
7E0FC0
7FFFC0
3FFF80
1FFF00
03FC00
ENDCHAR

STARTCHAR h
ENCODING 104
SWIDTH 611 0
DWIDTH 23 0
BBX 18 27 3 0
BITMAP
F80000
F80000
F80000
F80000
F80000
F80000
F80000
F87C00
F9FF00
FBFF80
FFFFC0
FE0FC0
FC0FC0
FC07C0
F807C0
F807C0
F807C0
F807C0
F807C0
F807C0
F807C0
F807C0
F807C0
F807C0
F807C0
F807C0
F807C0
ENDCHAR

STARTCHAR i
ENCODING 105
SWIDTH 278 0
DWIDTH 11 0
BBX 5 27 3 0
BITMAP
F8
F8
F8
F8
F8
00
00
F8
F8
F8
F8
F8
F8
F8
F8
F8
F8
F8
F8
F8
F8
F8
F8
F8
F8
F8
F8
ENDCHAR

STARTCHAR j
ENCODING 106
SWIDTH 278 0
DWIDTH 11 0
BBX 9 35 -1 -8
BITMAP
0F80
0F80
0F80
0F80
0F80
0000
0000
0F80
0F80
0F80
0F80
0F80
0F80
0F80
0F80
0F80
0F80
0F80
0F80
0F80
0F80
0F80
0F80
0F80
0F80
0F80
0F80
0F80
0F80
1F80
FF80
FF80
FF00
FE00
FC00
ENDCHAR

STARTCHAR k
ENCODING 107
SWIDTH 556 0
DWIDTH 21 0
BBX 18 27 3 0
BITMAP
F80000
F80000
F80000
F80000
F80000
F80000
F80000
F81FC0
F83F00
F87E00
F8FE00
F9FC00
FBF800
FBF000
FFE000
FFF000
FFF000
FFF800
FEF800
FCFC00
F87E00
F83E00
F83F00
F81F00
F81F80
F80F80
F80FC0
ENDCHAR

STARTCHAR l
ENCODING 108
SWIDTH 278 0
DWIDTH 11 0
BBX 5 27 3 0
BITMAP
F8
F8
F8
F8
F8
F8
F8
F8
F8
F8
F8
F8
F8
F8
F8
F8
F8
F8
F8
F8
F8
F8
F8
F8
F8
F8
F8
ENDCHAR

STARTCHAR m
ENCODING 109
SWIDTH 889 0
DWIDTH 34 0
BBX 29 20 2 0
BITMAP
F8FC0FC0
FBFE3FE0
FBFF7FF0
FFFFFFF8
FE1FE1F8
FC0FC0F8
FC0FC0F8
F80F80F8
F80F80F8
F80F80F8
F80F80F8
F80F80F8
F80F80F8
F80F80F8
F80F80F8
F80F80F8
F80F80F8
F80F80F8
F80F80F8
F80F80F8
ENDCHAR

STARTCHAR n
ENCODING 110
SWIDTH 611 0
DWIDTH 23 0
BBX 18 20 3 0
BITMAP
F8FC00
F9FF00
FBFF80
FFFFC0
FE0FC0
FC0FC0
FC07C0
F807C0
F807C0
F807C0
F807C0
F807C0
F807C0
F807C0
F807C0
F807C0
F807C0
F807C0
F807C0
F807C0
ENDCHAR

STARTCHAR o
ENCODING 111
SWIDTH 611 0
DWIDTH 23 0
BBX 20 20 2 0
BITMAP
03FC00
0FFF00
1FFF80
3FFFC0
7F0FE0
7E07E0
FC03F0
FC03F0
F801F0
F801F0
F801F0
F801F0
FC03F0
FC03F0
7E07E0
7F0FE0
3FFFC0
1FFF80
0FFF00
03FC00
ENDCHAR

STARTCHAR p
ENCODING 112
SWIDTH 611 0
DWIDTH 23 0
BBX 19 27 3 -7
BITMAP
F8FC00
FBFF00
FBFF80
FFFFC0
FE1FC0
FC07E0
FC07E0
F803E0
F803E0
F803E0
F803E0
F803E0
F803E0
FC07E0
FC07C0
FF1FC0
FFFF80
FBFF80
F9FF00
F8FC00
F80000
F80000
F80000
F80000
F80000
F80000
F80000
ENDCHAR

STARTCHAR q
ENCODING 113
SWIDTH 611 0
DWIDTH 23 0
BBX 19 27 2 -7
BITMAP
07E3E0
1FFBE0
3FFDE0
3FFFE0
7F0FE0
7C07E0
FC03E0
F803E0
F803E0
F803E0
F803E0
F803E0
F803E0
FC07E0
7C07E0
7F1FE0
3FFFE0
3FFDE0
1FFBE0
07E3E0
0003E0
0003E0
0003E0
0003E0
0003E0
0003E0
0003E0
ENDCHAR

STARTCHAR r
ENCODING 114
SWIDTH 389 0
DWIDTH 15 0
BBX 13 20 3 0
BITMAP
F9E0
FBF8
FBF0
FFF0
FFE0
FE20
FC00
FC00
F800
F800
F800
F800
F800
F800
F800
F800
F800
F800
F800
F800
ENDCHAR

STARTCHAR s
ENCODING 115
SWIDTH 556 0
DWIDTH 21 0
BBX 19 20 0 0
BITMAP
03F800
0FFF00
3FFF80
3FFFC0
7C0FC0
7C0700
7E0000
7FE000
3FFE00
1FFF80
07FFC0
01FFE0
001FE0
0C03E0
FC03E0
7E07E0
3FFFC0
1FFF80
0FFF00
03F800
ENDCHAR

STARTCHAR t
ENCODING 116
SWIDTH 333 0
DWIDTH 13 0
BBX 12 27 0 0
BITMAP
0100
0700
0F00
1F00
1F00
1F00
1F00
FFF0
FFF0
FFF0
FFF0
1F00
1F00
1F00
1F00
1F00
1F00
1F00
1F00
1F00
1F00
1F00
1F90
1FF0
1FF0
0FF0
07F0
ENDCHAR

STARTCHAR u
ENCODING 117
SWIDTH 611 0
DWIDTH 23 0
BBX 18 20 3 0
BITMAP
F807C0
F807C0
F807C0
F807C0
F807C0
F807C0
F807C0
F807C0
F807C0
F807C0
F807C0
F807C0
F807C0
F80FC0
FC0FC0
FC1FC0
7FFFC0
7FF7C0
3FE7C0
0F87C0
ENDCHAR

STARTCHAR v
ENCODING 118
SWIDTH 556 0
DWIDTH 21 0
BBX 21 20 0 0
BITMAP
FC01F8
7C01F0
7E03F0
3E03E0
3E03E0
3F07E0
1F07C0
1F07C0
0F8F80
0F8F80
0FCF80
07DF00
07DF00
03EE00
03FE00
03FE00
01FC00
01FC00
00F800
00F800
ENDCHAR

STARTCHAR w
ENCODING 119
SWIDTH 778 0
DWIDTH 30 0
BBX 30 20 0 0
BITMAP
F80F80FC
7C0FC0F8
7C0FC0F8
7C1FC1F0
3C1FC1F0
3E1FE1F0
3E1FE1E0
3E3EE3E0
1F3DF3E0
1F3DF3C0
1F3CF7C0
0F7CF7C0
0FB8FBC0
0FF8FF80
07F87F80
07F87F80
07F07F00
03F03F00
03F03F00
03E03E00
ENDCHAR

STARTCHAR x
ENCODING 120
SWIDTH 556 0
DWIDTH 21 0
BBX 21 20 0 0
BITMAP
7E03F0
3F07E0
3F8FE0
1F8FC0
0FDF80
0FFF00
07FF00
03FE00
01FC00
01FC00
01FC00
03FE00
07FF00
07FF00
0FDF80
1F8FC0
1F8FE0
3F07E0
7E03F0
FE03F8
ENDCHAR

STARTCHAR y
ENCODING 121
SWIDTH 556 0
DWIDTH 21 0
BBX 21 28 0 -8
BITMAP
FC01F8
7C01F0
7E03F0
3E03E0
3E03E0
3F07E0
1F07C0
1F07C0
1F8FC0
0F8F80
0F8F80
07DF00
07DF00
07DF00
03FE00
03FE00
01FE00
01FC00
01FC00
00FC00
00F800
01F800
01F800
07F000
3FF000
3FE000
3FC000
3F8000
ENDCHAR

STARTCHAR z
ENCODING 122
SWIDTH 500 0
DWIDTH 19 0
BBX 17 20 1 0
BITMAP
FFFF80
FFFF80
FFFF80
FFBF80
007F00
00FE00
01FC00
01F800
03F000
07F000
0FE000
1FC000
3F8000
7F0000
7E0000
FFFF80
FFFF80
FFFF80
FFFF80
FFFF80
ENDCHAR

STARTCHAR braceleft
ENCODING 123
SWIDTH 389 0
DWIDTH 15 0
BBX 13 36 1 -8
BITMAP
01F8
03F8
07F8
07F8
0FC0
0F80
0F80
0F80
0F80
0F80
0F80
0F80
0F80
0F80
1F80
7F00
FE00
FC00
FC00
FE00
7F00
1F00
0F80
0F80
0F80
0F80
0F80
0F80
0F80
0F80
0F80
0FE0
07F8
07F8
03F8
01F8
ENDCHAR

STARTCHAR bar
ENCODING 124
SWIDTH 280 0
DWIDTH 11 0
BBX 4 36 3 -8
BITMAP
F0
F0
F0
F0
F0
F0
F0
F0
F0
F0
F0
F0
F0
F0
F0
F0
F0
F0
F0
F0
F0
F0
F0
F0
F0
F0
F0
F0
F0
F0
F0
F0
F0
F0
F0
F0
ENDCHAR

STARTCHAR braceright
ENCODING 125
SWIDTH 389 0
DWIDTH 15 0
BBX 13 36 1 -8
BITMAP
FC00
FE00
FF00
FF00
1F00
0F00
0F80
0F80
0F80
0F80
0F80
0F80
0F80
0F80
0FC0
07F0
07F8
01F8
03F8
07F8
07E0
0FC0
0F80
0F80
0F80
0F80
0F80
0F80
0F80
0F80
1F00
3F00
FF00
FF00
FE00
FC00
ENDCHAR

STARTCHAR asciitilde
ENCODING 126
SWIDTH 584 0
DWIDTH 22 0
BBX 20 8 1 9
BITMAP
1F8010
7FE010
FFF870
FFFFF0
FFFFF0
E0FFF0
803FE0
000F80
ENDCHAR

STARTCHAR space
ENCODING 160
SWIDTH 278 0
DWIDTH 11 0
BBX 0 0 0 0
BITMAP
ENDCHAR

STARTCHAR afii10023
ENCODING 161
SWIDTH 667 0
DWIDTH 25 0
BBX 21 33 3 0
BITMAP
0F8F80
0F8F80
0F8F80
0F8F80
000000
000000
FFFFF0
FFFFF0
FFFFF0
FFFFF0
FFFFF0
F80000
F80000
F80000
F80000
F80000
FFFFE0
FFFFE0
FFFFE0
FFFFE0
FFFFE0
F80000
F80000
F80000
F80000
F80000
F80000
F80000
FFFFF8
FFFFF8
FFFFF8
FFFFF8
FFFFF8
ENDCHAR

STARTCHAR afii10051
ENCODING 162
SWIDTH 886 0
DWIDTH 34 0
BBX 31 27 1 0
BITMAP
FFFFF800
FFFFF800
FFFFF800
FFFFF800
FFFFF800
00F80000
00F80000
00F80000
00F80000
00F87F80
00FBFFE0
00FFFFF0
00FFFFF8
00FFFFFC
00FF80FE
00FC007E
00F8003E
00F8003E
00F8003E
00F8003E
00F8007E
00F800FC
00F81FFC
00F81FF8
00F81FF0
00F83FE0
00F80F00
ENDCHAR

STARTCHAR afii10052
ENCODING 163
SWIDTH 579 0
DWIDTH 22 0
BBX 18 33 3 0
BITMAP
00FE00
01F800
01F000
03E000
07C000
000000
FFFFC0
FFFFC0
FFFFC0
FFFFC0
FFFFC0
F80000
F80000
F80000
F80000
F80000
F80000
F80000
F80000
F80000
F80000
F80000
F80000
F80000
F80000
F80000
F80000
F80000
F80000
F80000
F80000
F80000
F80000
ENDCHAR

STARTCHAR afii10053
ENCODING 164
SWIDTH 711 0
DWIDTH 27 0
BBX 23 28 2 0
BITMAP
007E00
03FFC0
07FFF0
0FFFF8
1FFFFC
3F81FC
7F00FE
7E007E
7C003C
FC0000
FC0000
F80000
FFFC00
FFFC00
FFFC00
FFFC00
FBFC00
FC0000
FC0030
FC003E
7E007E
7F00FE
3F81FC
1FFFFC
1FFFF8
07FFF0
03FFC0
007E00
ENDCHAR

STARTCHAR afii10054
ENCODING 165
SWIDTH 667 0
DWIDTH 25 0
BBX 22 28 1 0
BITMAP
00FC00
07FF80
1FFFE0
3FFFF0
3FFFF8
7E03F8
7C01F8
7C00FC
7E00C0
7F0000
7FE000
3FFE00
1FFFC0
0FFFE0
03FFF0
007FF8
0007FC
0001FC
7800FC
FC007C
FC007C
7E00FC
7F01FC
3FFFF8
3FFFF8
1FFFF0
07FFC0
00FC00
ENDCHAR

STARTCHAR afii10055
ENCODING 166
SWIDTH 278 0
DWIDTH 11 0
BBX 5 27 3 0
BITMAP
F8
F8
F8
F8
F8
F8
F8
F8
F8
F8
F8
F8
F8
F8
F8
F8
F8
F8
F8
F8
F8
F8
F8
F8
F8
F8
F8
ENDCHAR

STARTCHAR afii10056
ENCODING 167
SWIDTH 278 0
DWIDTH 11 0
BBX 13 33 -1 0
BITMAP
F8F8
F8F8
F8F8
F8F8
0000
0000
0F80
0F80
0F80
0F80
0F80
0F80
0F80
0F80
0F80
0F80
0F80
0F80
0F80
0F80
0F80
0F80
0F80
0F80
0F80
0F80
0F80
0F80
0F80
0F80
0F80
0F80
0F80
ENDCHAR

STARTCHAR afii10057
ENCODING 168
SWIDTH 556 0
DWIDTH 21 0
BBX 17 27 1 0
BITMAP
000F80
000F80
000F80
000F80
000F80
000F80
000F80
000F80
000F80
000F80
000F80
000F80
000F80
000F80
000F80
000F80
000F80
000F80
F80F80
F80F80
FC1F80
FC1F80
7FFF00
7FFF00
3FFE00
1FF800
03E000
ENDCHAR

STARTCHAR afii10058
ENCODING 169
SWIDTH 1122 0
DWIDTH 43 0
BBX 40 27 1 0
BITMAP
0FFFFE0000
0FFFFE0000
0FFFFE0000
0FFFFE0000
0FFFFE0000
0F803E0000
0F803E0000
0F803E0000
0F803E0000
0F803E0000
0F803E0000
0F803FFFC0
0F803FFFF0
0F803FFFF8
0F803FFFFC
0F803FFFFE
0F803E007E
0F803E003F
0F803E003F
0F803E003F
0F803E003F
0F803E007F
1F803FFFFE
FF803FFFFC
FF803FFFFC
FF003FFFF0
FE003FFFC0
ENDCHAR

STARTCHAR afii10059
ENCODING 170
SWIDTH 1079 0
DWIDTH 41 0
BBX 36 27 3 0
BITMAP
F807C00000
F807C00000
F807C00000
F807C00000
F807C00000
F807C00000
F807C00000
F807C00000
F807C00000
F807C00000
FFFFFFF800
FFFFFFFF00
FFFFFFFF80
FFFFFFFFC0
FFFFFFFFE0
F807C00FE0
F807C003F0
F807C003F0
F807C003F0
F807C003F0
F807C003F0
F807C00FE0
F807FFFFE0
F807FFFFC0
F807FFFFC0
F807FFFF00
F807FFFC00
ENDCHAR

STARTCHAR afii10060
ENCODING 171
SWIDTH 860 0
DWIDTH 33 0
BBX 29 27 1 0
BITMAP
FFFFF800
FFFFF800
FFFFF800
FFFFF800
FFFFF800
00F80000
00F80000
00F80000
00F80000
00F8FE00
00FFFFC0
00FFFFE0
00FFFFF0
00FFFFF0
00FE03F8
00F801F8
00F801F8
00F800F8
00F800F8
00F800F8
00F800F8
00F800F8
00F800F8
00F800F8
00F800F8
00F800F8
00F800F8
ENDCHAR

STARTCHAR afii10061
ENCODING 172
SWIDTH 611 0
DWIDTH 23 0
BBX 20 33 3 0
BITMAP
00FE00
01F800
03F000
03C000
078000
000000
F803F0
F807F0
F80FF0
F81FF0
F81F00
F83E00
F83E00
F87C00
F87C00
F87800
F8F800
FFF000
FFC000
FFF000
FFF800
F9FC00
F8FC00
F87E00
F87F00
F83F00
F83F80
F81F80
F81FC0
F80FC0
F80FE0
F807E0
F807F0
ENDCHAR

STARTCHAR hyphen
ENCODING 173
SWIDTH 333 0
DWIDTH 13 0
BBX 11 5 1 7
BITMAP
FFE0
FFE0
FFE0
FFE0
FFE0
ENDCHAR

STARTCHAR afii10062
ENCODING 174
SWIDTH 622 0
DWIDTH 24 0
BBX 24 34 0 -1
BITMAP
03C0F0
01E1E0
00FFC0
007F80
001E00
000000
FC003F
7E007E
7E007E
3F007C
3F00FC
1F80F8
1F81F8
0FC1F0
0FC1F0
07C3E0
07E3E0
03E3E0
03F7C0
01F7C0
01FF80
00FF80
00FF00
007F00
007E00
003E00
003E00
007C00
00FC00
0FF800
0FF800
0FF000
0FE000
078000
ENDCHAR

STARTCHAR afii10145
ENCODING 175
SWIDTH 722 0
DWIDTH 27 0
BBX 22 34 3 -7
BITMAP
F8007C
F8007C
F8007C
F8007C
F8007C
F8007C
F8007C
F8007C
F8007C
F8007C
F8007C
F8007C
F8007C
F8007C
F8007C
F8007C
F8007C
F8007C
F8007C
F8007C
F8007C
F8007C
FFFFFC
FFFFFC
FFFFFC
FFFFFC
FFFFFC
007800
007800
007800
007800
007800
007800
007800
ENDCHAR

STARTCHAR afii10017
ENCODING 176
SWIDTH 722 0
DWIDTH 27 0
BBX 27 27 0 0
BITMAP
001F8000
003F8000
003FC000
007FC000
007FC000
007FE000
00FBE000
00FBF000
01FBF000
01F1F000
01F1F800
03F1F800
03E0FC00
07E0FC00
07C07C00
07C07E00
0FFFFE00
0FFFFF00
1FFFFF00
1FFFFF00
1FFFFF80
3F001F80
3F000FC0
7E000FC0
7E000FC0
7C0007E0
FC0007E0
ENDCHAR

STARTCHAR afii10018
ENCODING 177
SWIDTH 719 0
DWIDTH 27 0
BBX 23 27 3 0
BITMAP
FFFFF0
FFFFF0
FFFFF0
FFFFF0
FFFFF0
F80000
F80000
F80000
F80000
F80000
F80000
FFFF80
FFFFE0
FFFFF8
FFFFF8
FFFFFC
F800FC
F8007E
F8007E
F8007E
F8007E
F800FE
FFFFFC
FFFFF8
FFFFF8
FFFFE0
FFFF80
ENDCHAR

STARTCHAR afii10019
ENCODING 178
SWIDTH 722 0
DWIDTH 27 0
BBX 23 27 3 0
BITMAP
FFFF00
FFFFC0
FFFFE0
FFFFF0
FFFFF8
F801F8
F800F8
F800F8
F800F8
F801F8
F803F0
FFFFF0
FFFF80
FFFFE0
FFFFF0
FFFFF8
F800FC
F8007C
F8007E
F8007E
F8007E
F800FC
FFFFFC
FFFFF8
FFFFF8
FFFFE0
FFFF80
ENDCHAR

STARTCHAR afii10020
ENCODING 179
SWIDTH 579 0
DWIDTH 22 0
BBX 18 27 3 0
BITMAP
FFFFC0
FFFFC0
FFFFC0
FFFFC0
FFFFC0
F80000
F80000
F80000
F80000
F80000
F80000
F80000
F80000
F80000
F80000
F80000
F80000
F80000
F80000
F80000
F80000
F80000
F80000
F80000
F80000
F80000
F80000
ENDCHAR

STARTCHAR afii10021
ENCODING 180
SWIDTH 712 0
DWIDTH 27 0
BBX 26 33 0 -6
BITMAP
07FFFF00
07FFFF00
07FFFF00
07FFFF00
07FFFF00
07C01F00
07C01F00
07C01F00
07C01F00
07C01F00
07C01F00
07C01F00
07C01F00
07C01F00
0FC01F00
0FC01F00
0FC01F00
0F801F00
1F801F00
1F801F00
1F801F00
3F001F00
FFFFFFC0
FFFFFFC0
FFFFFFC0
FFFFFFC0
FFFFFFC0
F00003C0
F00003C0
F00003C0
F00003C0
F00003C0
F00003C0
ENDCHAR

STARTCHAR afii10022
ENCODING 181
SWIDTH 667 0
DWIDTH 25 0
BBX 20 27 3 0
BITMAP
FFFFF0
FFFFF0
FFFFF0
FFFFF0
FFFFF0
F80000
F80000
F80000
F80000
F80000
FFFFE0
FFFFE0
FFFFE0
FFFFE0
FFFFE0
F80000
F80000
F80000
F80000
F80000
F80000
F80000
FFFFF0
FFFFF0
FFFFF0
FFFFF0
FFFFF0
ENDCHAR

STARTCHAR afii10024
ENCODING 182
SWIDTH 904 0
DWIDTH 34 0
BBX 33 27 1 0
BITMAP
FC03E00F80
FE03E03F80
FF03E07F80
FF83E0FF80
0F83E0FC00
0FC3E0F800
07C3E1F000
07C3E1F000
03E3E3E000
03E3E3E000
01F3E7C000
01FFFFC000
007FFF0000
00FFFF8000
01FFFFC000
03FBE7E000
07F3E3F000
07E3E3F800
0FC3E1F800
0FC3E1FC00
1F83E0FC00
3F83E0FE00
3F03E07E00
7F03E07F00
7E03E03F00
FE03E03F80
FC03E01F80
ENDCHAR

STARTCHAR afii10025
ENCODING 183
SWIDTH 626 0
DWIDTH 24 0
BBX 21 28 1 0
BITMAP
03FE00
0FFF80
1FFFC0
3FFFE0
3F8FF0
7F03F0
7E03F0
0C01F0
0001F0
0001F0
0003F0
000FE0
007FC0
007F00
007FC0
007FF0
0007F0
0003F8
0001F8
0001F8
1801F8
FC01F8
FC03F0
7F0FF0
7FFFF0
3FFFE0
0FFF80
03FE00
ENDCHAR

STARTCHAR afii10026
ENCODING 184
SWIDTH 719 0
DWIDTH 27 0
BBX 21 27 3 0
BITMAP
F801F8
F801F8
F803F8
F803F8
F807F8
F80FF8
F80FF8
F81FF8
F81FF8
F83F78
F83EF8
F87EF8
F8FCF8
F8F8F8
F9F8F8
F9F0F8
FBF0F8
FBE0F8
FFC0F8
FFC0F8
FF80F8
FF80F8
FF00F8
FE00F8
FE00F8
FC00F8
FC00F8
ENDCHAR

STARTCHAR afii10027
ENCODING 185
SWIDTH 719 0
DWIDTH 27 0
BBX 21 33 3 0
BITMAP
0F0780
070700
07FF00
03FE00
00F800
000000
F801F8
F801F8
F803F8
F803F8
F807F8
F80FF8
F80FF8
F81FF8
F81FF8
F83F78
F83EF8
F87EF8
F8FCF8
F8F8F8
F9F8F8
F9F0F8
FBF0F8
FBE0F8
FFC0F8
FFC0F8
FF80F8
FF80F8
FF00F8
FE00F8
FE00F8
FC00F8
FC00F8
ENDCHAR

STARTCHAR afii10028
ENCODING 186
SWIDTH 611 0
DWIDTH 23 0
BBX 20 27 3 0
BITMAP
F803F0
F807F0
F80FF0
F81FF0
F81F00
F83E00
F83E00
F87C00
F87C00
F87800
F8F800
FFF000
FFC000
FFF000
FFF800
F9FC00
F8FC00
F87E00
F87F00
F83F00
F83F80
F81F80
F81FC0
F80FC0
F80FE0
F807E0
F807F0
ENDCHAR

STARTCHAR afii10029
ENCODING 187
SWIDTH 702 0
DWIDTH 27 0
BBX 23 27 1 0
BITMAP
0FFFFE
0FFFFE
0FFFFE
0FFFFE
0FFFFE
0F803E
0F803E
0F803E
0F803E
0F803E
0F803E
0F803E
0F803E
0F803E
0F803E
0F803E
0F803E
0F803E
0F803E
0F803E
0F803E
0F803E
1F803E
FF803E
FF803E
FF003E
FE003E
ENDCHAR

STARTCHAR afii10030
ENCODING 188
SWIDTH 833 0
DWIDTH 32 0
BBX 26 27 3 0
BITMAP
FF003FC0
FF807FC0
FF807FC0
FF807FC0
FF807FC0
FFC0FFC0
FBC0FBC0
FBC0FBC0
FBC0F7C0
FBE1F7C0
FBE1F7C0
FBE1F7C0
F9E1E7C0
F9F3E7C0
F9F3E7C0
F9F3E7C0
F8FFC7C0
F8FBC7C0
F8FFC7C0
F87FC7C0
F87F87C0
F87F87C0
F87F87C0
F83F07C0
F83F07C0
F83F07C0
F83F07C0
ENDCHAR

STARTCHAR afii10031
ENCODING 189
SWIDTH 722 0
DWIDTH 27 0
BBX 21 27 3 0
BITMAP
F800F8
F800F8
F800F8
F800F8
F800F8
F800F8
F800F8
F800F8
F800F8
F800F8
FFFFF8
FFFFF8
FFFFF8
FFFFF8
FFFFF8
F800F8
F800F8
F800F8
F800F8
F800F8
F800F8
F800F8
F800F8
F800F8
F800F8
F800F8
F800F8
ENDCHAR

STARTCHAR afii10032
ENCODING 190
SWIDTH 778 0
DWIDTH 30 0
BBX 27 28 1 0
BITMAP
003F8000
01FFF000
07FFFC00
0FFFFE00
1FFFFF00
3FC07F80
3F801F80
7F001FC0
7E000FC0
7E0007C0
7C0007E0
FC0007E0
FC0007E0
FC0007E0
FC0007E0
FC0007E0
FC0007E0
7C0007C0
7E000FC0
7E000FC0
7F001FC0
3F803F80
1FC07F80
1FFFFF00
0FFFFE00
07FFFC00
01FFF000
003F8000
ENDCHAR

STARTCHAR afii10033
ENCODING 191
SWIDTH 722 0
DWIDTH 27 0
BBX 21 27 3 0
BITMAP
FFFFF8
FFFFF8
FFFFF8
FFFFF8
FFFFF8
F800F8
F800F8
F800F8
F800F8
F800F8
F800F8
F800F8
F800F8
F800F8
F800F8
F800F8
F800F8
F800F8
F800F8
F800F8
F800F8
F800F8
F800F8
F800F8
F800F8
F800F8
F800F8
ENDCHAR

STARTCHAR afii10034
ENCODING 192
SWIDTH 667 0
DWIDTH 25 0
BBX 21 27 3 0
BITMAP
FFFC00
FFFF80
FFFFE0
FFFFE0
FFFFF0
F803F8
F801F8
F801F8
F801F8
F801F8
F801F8
F807F0
FFFFF0
FFFFE0
FFFFC0
FFFF80
FFFC00
F80000
F80000
F80000
F80000
F80000
F80000
F80000
F80000
F80000
F80000
ENDCHAR

STARTCHAR afii10035
ENCODING 193
SWIDTH 722 0
DWIDTH 27 0
BBX 24 28 2 0
BITMAP
003F00
01FFE0
07FFF0
0FFFF8
1FFFFC
3FC0FE
3F007E
7E003F
7E003C
7C0000
7C0000
FC0000
FC0000
FC0000
FC0000
FC0000
FC0000
7C0000
7E003C
7E003F
7E007E
3F007E
3F81FE
1FFFFC
0FFFF8
07FFF0
01FFC0
003F00
ENDCHAR

STARTCHAR afii10036
ENCODING 194
SWIDTH 611 0
DWIDTH 23 0
BBX 21 27 1 0
BITMAP
FFFFF8
FFFFF8
FFFFF8
FFFFF8
FFFFF8
00F800
00F800
00F800
00F800
00F800
00F800
00F800
00F800
00F800
00F800
00F800
00F800
00F800
00F800
00F800
00F800
00F800
00F800
00F800
00F800
00F800
00F800
ENDCHAR

STARTCHAR afii10037
ENCODING 195
SWIDTH 622 0
DWIDTH 24 0
BBX 24 28 0 -1
BITMAP
FC003F
7E007E
7E007E
3F007C
3F00FC
1F80F8
1F81F8
0FC1F0
0FC1F0
07C3E0
07E3E0
03E3E0
03F7C0
01F7C0
01FF80
00FF80
00FF00
007F00
007E00
003E00
003E00
007C00
00FC00
0FF800
0FF800
0FF000
0FE000
078000
ENDCHAR

STARTCHAR afii10038
ENCODING 196
SWIDTH 853 0
DWIDTH 32 0
BBX 29 27 2 0
BITMAP
000F8000
000F8000
000F8000
01FFFC00
0FFFFF80
1FFFFFC0
3FFFFFE0
7FCF8FF0
7E0F83F0
FC0F81F8
FC0F81F8
F80F80F8
F80F80F8
F80F80F8
F80F80F8
FC0F80F8
FC0F81F8
7E0F83F0
7F0F87F0
3FFFFFE0
3FFFFFE0
0FFFFF80
07FFFF00
007FF000
000F8000
000F8000
000F8000
ENDCHAR

STARTCHAR afii10039
ENCODING 197
SWIDTH 667 0
DWIDTH 25 0
BBX 25 27 0 0
BITMAP
7F003F00
3F007F00
3F807E00
1FC0FC00
0FC1FC00
0FE1F800
07E3F000
03F7F000
03FBE000
01FFC000
00FFC000
00FF8000
007F0000
007F0000
00FF8000
00FFC000
01FFC000
03FFE000
03F7F000
07E3F000
0FE1F800
0FC1FC00
1F80FC00
3F80FE00
3F007F00
7F003F00
FE003F80
ENDCHAR

STARTCHAR afii10040
ENCODING 198
SWIDTH 734 0
DWIDTH 28 0
BBX 23 33 3 -6
BITMAP
F800F8
F800F8
F800F8
F800F8
F800F8
F800F8
F800F8
F800F8
F800F8
F800F8
F800F8
F800F8
F800F8
F800F8
F800F8
F800F8
F800F8
F800F8
F800F8
F800F8
F800F8
F800F8
FFFFFE
FFFFFE
FFFFFE
FFFFFE
FFFFFE
00001E
00001E
00001E
00001E
00001E
00001E
ENDCHAR

STARTCHAR afii10041
ENCODING 199
SWIDTH 696 0
DWIDTH 26 0
BBX 21 27 2 0
BITMAP
F800F8
F800F8
F800F8
F800F8
F800F8
F800F8
F800F8
F800F8
F800F8
F800F8
FC00F8
FC00F8
FE03F8
7FFFF8
7FFFF8
3FFFF8
0FFEF8
01F0F8
0000F8
0000F8
0000F8
0000F8
0000F8
0000F8
0000F8
0000F8
0000F8
ENDCHAR

STARTCHAR afii10042
ENCODING 200
SWIDTH 1004 0
DWIDTH 38 0
BBX 32 27 3 0
BITMAP
F807C01F
F807C01F
F807C01F
F807C01F
F807C01F
F807C01F
F807C01F
F807C01F
F807C01F
F807C01F
F807C01F
F807C01F
F807C01F
F807C01F
F807C01F
F807C01F
F807C01F
F807C01F
F807C01F
F807C01F
F807C01F
F807C01F
FFFFFFFF
FFFFFFFF
FFFFFFFF
FFFFFFFF
FFFFFFFF
ENDCHAR

STARTCHAR afii10043
ENCODING 201
SWIDTH 1019 0
DWIDTH 39 0
BBX 34 33 3 -6
BITMAP
F807C01F00
F807C01F00
F807C01F00
F807C01F00
F807C01F00
F807C01F00
F807C01F00
F807C01F00
F807C01F00
F807C01F00
F807C01F00
F807C01F00
F807C01F00
F807C01F00
F807C01F00
F807C01F00
F807C01F00
F807C01F00
F807C01F00
F807C01F00
F807C01F00
F807C01F00
FFFFFFFFC0
FFFFFFFFC0
FFFFFFFFC0
FFFFFFFFC0
FFFFFFFFC0
00000003C0
00000003C0
00000003C0
00000003C0
00000003C0
00000003C0
ENDCHAR

STARTCHAR afii10044
ENCODING 202
SWIDTH 870 0
DWIDTH 33 0
BBX 31 27 1 0
BITMAP
FFF80000
FFF80000
FFF80000
FFF80000
FFF80000
00F80000
00F80000
00F80000
00F80000
00F80000
00F80000
00FFFF00
00FFFFE0
00FFFFF0
00FFFFF8
00FFFFFC
00F800FC
00F8007E
00F8007E
00F8007E
00F8007E
00F800FE
00FFFFFC
00FFFFF8
00FFFFF8
00FFFFE0
00FFFF80
ENDCHAR

STARTCHAR afii10045
ENCODING 203
SWIDTH 979 0
DWIDTH 37 0
BBX 31 27 3 0
BITMAP
F800003E
F800003E
F800003E
F800003E
F800003E
F800003E
F800003E
F800003E
F800003E
F800003E
FFFF003E
FFFFE03E
FFFFF03E
FFFFF83E
FFFFFC3E
F801FC3E
F8007E3E
F8007E3E
F8007E3E
F8007E3E
F8007E3E
F801FC3E
FFFFFC3E
FFFFF83E
FFFFF03E
FFFFE03E
FFFF803E
ENDCHAR

STARTCHAR afii10046
ENCODING 204
SWIDTH 719 0
DWIDTH 27 0
BBX 23 27 3 0
BITMAP
F80000
F80000
F80000
F80000
F80000
F80000
F80000
F80000
F80000
F80000
FFFF00
FFFFE0
FFFFF0
FFFFF8
FFFFFC
F801FC
F8007E
F8007E
F8007E
F8007E
F800FE
F801FC
FFFFFC
FFFFF8
FFFFF8
FFFFE0
FFFF80
ENDCHAR

STARTCHAR afii10047
ENCODING 205
SWIDTH 711 0
DWIDTH 27 0
BBX 23 28 2 0
BITMAP
00FC00
07FF80
1FFFC0
3FFFE0
7FFFF0
7F03F8
FE01FC
FC00FC
7C007C
00007E
00007E
00003E
007FFE
007FFE
007FFE
007FFE
007FBE
00007E
18007E
FC007E
FC00FC
FE00FC
7F03F8
3FFFF8
3FFFF0
1FFFC0
07FF80
00FC00
ENDCHAR

STARTCHAR afii10048
ENCODING 206
SWIDTH 1027 0
DWIDTH 39 0
BBX 35 28 3 0
BITMAP
00001FC000
F800FFF000
F801FFFC00
F807FFFE00
F807FFFF00
F80FE07F80
F81FC01F80
F81F801FC0
F81F000FC0
F83F000FC0
F83F0007E0
F83F0007E0
FFFF0007E0
FFFE0007E0
FFFE0007E0
FFFE0007E0
FFFF0007E0
F83F0007E0
F83F0007C0
F83F000FC0
F81F800FC0
F81FC01F80
F80FE03F80
F807FFFF00
F807FFFE00
F801FFFC00
F800FFF000
F8001F8000
ENDCHAR

STARTCHAR afii10049
ENCODING 207
SWIDTH 722 0
DWIDTH 27 0
BBX 24 27 0 0
BITMAP
00FFFF
07FFFF
0FFFFF
1FFFFF
1FFFFF
3F801F
3F001F
3F001F
3F001F
3F001F
1F801F
1FC01F
0FFFFF
07FFFF
03FFFF
007FFF
00FE1F
03F81F
03F01F
07F01F
0FE01F
1FC01F
1FC01F
3F801F
7F001F
7E001F
FE001F
ENDCHAR

STARTCHAR afii10065
ENCODING 208
SWIDTH 556 0
DWIDTH 21 0
BBX 18 20 2 0
BITMAP
07F800
1FFE00
3FFF00
7FFF80
7C1F80
FC0F80
000F80
001F80
03FF80
1FFF80
3FFF80
7F0F80
FC0F80
F80F80
F80F80
F81F80
FE7F80
7FFF80
3FF7C0
1FC7C0
ENDCHAR

STARTCHAR afii10066
ENCODING 209
SWIDTH 618 0
DWIDTH 23 0
BBX 20 28 2 0
BITMAP
001FE0
03FFE0
0FFFE0
1FFFC0
3FE000
3E0000
7C0000
780000
78FC00
73FF00
F7FF80
FFFFC0
FF0FE0
FE07E0
FE03F0
FC03F0
FC01F0
FC01F0
7C01F0
7C01F0
7C03F0
7E03F0
3E07E0
3F8FE0
1FFFC0
1FFF80
07FF00
03FC00
ENDCHAR

STARTCHAR afii10067
ENCODING 210
SWIDTH 615 0
DWIDTH 23 0
BBX 19 20 3 0
BITMAP
FFFC00
FFFF00
FFFF80
FFFFC0
F807C0
F807C0
F807C0
F80F80
FFFF00
FFFE00
FFFF80
F80FC0
F807E0
F803E0
F803E0
F807E0
FFFFE0
FFFFC0
FFFF80
FFFE00
ENDCHAR

STARTCHAR afii10068
ENCODING 211
SWIDTH 427 0
DWIDTH 16 0
BBX 13 20 3 0
BITMAP
FFF8
FFF8
FFF8
FFF8
F800
F800
F800
F800
F800
F800
F800
F800
F800
F800
F800
F800
F800
F800
F800
F800
ENDCHAR

STARTCHAR afii10069
ENCODING 212
SWIDTH 635 0
DWIDTH 24 0
BBX 23 25 0 -5
BITMAP
07FFF8
07FFF8
07FFF8
07FFF8
07C0F8
07C0F8
07C0F8
0780F8
0780F8
0780F8
0F80F8
0F80F8
0F80F8
1F00F8
1F00F8
3E00F8
FFFFFE
FFFFFE
FFFFFE
FFFFFE
F0001E
F0001E
F0001E
F0001E
F0001E
ENDCHAR

STARTCHAR afii10070
ENCODING 213
SWIDTH 556 0
DWIDTH 21 0
BBX 18 20 2 0
BITMAP
07F000
0FFC00
3FFF00
3FFF00
7E1F80
7C0F80
F807C0
F807C0
FFFFC0
FFFFC0
FFFFC0
F80000
F80000
FC0600
7C0FC0
7F1F80
3FFF80
1FFF00
0FFE00
03F800
ENDCHAR

STARTCHAR afii10072
ENCODING 214
SWIDTH 709 0
DWIDTH 27 0
BBX 27 20 0 0
BITMAP
7C1F07C0
7E1F0FC0
7E1F0FC0
1F1F1F00
0F1F1E00
0F9F1E00
079F3C00
07DF7C00
03FFF800
01FFF000
07FFF800
0FDF7C00
0F9F3E00
1F1F1F00
1F1F1F00
3E1F0F80
3E1F0F80
7E1F0FC0
7C1F07C0
FC1F07E0
ENDCHAR

STARTCHAR afii10073
ENCODING 215
SWIDTH 497 0
DWIDTH 19 0
BBX 17 20 1 0
BITMAP
03E000
1FFC00
3FFE00
7FFE00
7C3F00
781F00
001F00
001F00
003E00
01F400
01F800
01FE00
001F00
000F80
380F80
FC0F80
7E3F80
3FFF00
1FFE00
0FF800
ENDCHAR

STARTCHAR afii10074
ENCODING 216
SWIDTH 615 0
DWIDTH 23 0
BBX 18 20 3 0
BITMAP
F807C0
F80FC0
F81FC0
F81FC0
F83FC0
F87FC0
F87FC0
F8FBC0
F8F7C0
F9F7C0
FBE7C0
FBC7C0
FFC7C0
FF87C0
FF07C0
FF07C0
FE07C0
FE07C0
FC07C0
F807C0
ENDCHAR

STARTCHAR afii10075
ENCODING 217
SWIDTH 610 0
DWIDTH 23 0
BBX 18 27 3 0
BITMAP
3C0F00
1E1E00
0FFC00
07F800
01E000
000000
000000
F807C0
F80FC0
F81FC0
F81FC0
F83FC0
F87FC0
F87FC0
F8FBC0
F8F7C0
F9F7C0
FBE7C0
FBC7C0
FFC7C0
FF87C0
FF07C0
FF07C0
FE07C0
FE07C0
FC07C0
F807C0
ENDCHAR

STARTCHAR afii10076
ENCODING 218
SWIDTH 500 0
DWIDTH 19 0
BBX 16 20 3 0
BITMAP
F81F
F83F
F87F
F87C
F8F0
F8F0
F8F0
F9E0
FFE0
FF80
FFE0
FBF0
F9F0
F8F8
F8FC
F87C
F87E
F83E
F83F
F81F
ENDCHAR

STARTCHAR afii10077
ENCODING 219
SWIDTH 635 0
DWIDTH 24 0
BBX 21 20 0 0
BITMAP
0FFFF8
0FFFF8
0FFFF8
0FFFF8
0F80F8
0F80F8
0F80F8
0F80F8
0F80F8
0F80F8
0F80F8
0F80F8
0F80F8
0F80F8
0F80F8
1F80F8
FF80F8
FF00F8
FF00F8
FE00F8
ENDCHAR

STARTCHAR afii10078
ENCODING 220
SWIDTH 740 0
DWIDTH 28 0
BBX 22 20 3 0
BITMAP
FC00FC
FE01FC
FE01FC
FE01FC
FF03FC
FF03FC
FF03FC
F787DC
F787BC
F787BC
F7CFBC
F3CF3C
F3FF3C
F3EE3C
F1FE3C
F1FE3C
F0FC3C
F0FC3C
F0FC3C
F0783C
ENDCHAR

STARTCHAR afii10079
ENCODING 221
SWIDTH 604 0
DWIDTH 23 0
BBX 18 20 2 0
BITMAP
F807C0
F807C0
F807C0
F807C0
F807C0
F807C0
F807C0
FFFFC0
FFFFC0
FFFFC0
FFFFC0
F807C0
F807C0
F807C0
F807C0
F807C0
F807C0
F807C0
F807C0
F807C0
ENDCHAR

STARTCHAR afii10080
ENCODING 222
SWIDTH 611 0
DWIDTH 23 0
BBX 20 20 2 0
BITMAP
03FC00
0FFF00
1FFF80
3FFFC0
7F0FE0
7E07E0
FC03F0
FC03F0
F801F0
F801F0
F801F0
F801F0
FC03F0
FC03F0
7E07E0
7F0FE0
3FFFC0
1FFF80
0FFF00
03FC00
ENDCHAR

STARTCHAR afii10081
ENCODING 223
SWIDTH 604 0
DWIDTH 23 0
BBX 17 20 3 0
BITMAP
FFFF80
FFFF80
FFFF80
FFFF80
F80F80
F80F80
F80F80
F80F80
F80F80
F80F80
F80F80
F80F80
F80F80
F80F80
F80F80
F80F80
F80F80
F80F80
F80F80
F80F80
ENDCHAR

STARTCHAR afii10082
ENCODING 224
SWIDTH 611 0
DWIDTH 23 0
BBX 19 27 3 -7
BITMAP
F8FC00
FBFF00
FBFF80
FFFFC0
FE1FC0
FC07E0
FC07E0
F803E0
F803E0
F803E0
F803E0
F803E0
F803E0
FC07E0
FC07C0
FF1FC0
FFFF80
FBFF80
F9FF00
F8FC00
F80000
F80000
F80000
F80000
F80000
F80000
F80000
ENDCHAR

STARTCHAR afii10083
ENCODING 225
SWIDTH 556 0
DWIDTH 21 0
BBX 18 20 2 0
BITMAP
03F800
0FFE00
1FFF00
3FFF80
7E0FC0
7C07C0
FC0700
F80000
F80000
F80000
F80000
F80000
FC0600
FC07C0
7C0FC0
7F1FC0
3FFF80
3FFF00
0FFE00
03F800
ENDCHAR

STARTCHAR afii10084
ENCODING 226
SWIDTH 490 0
DWIDTH 19 0
BBX 17 20 1 0
BITMAP
FFFF80
FFFF80
FFFF80
FFFF80
03E000
03E000
03E000
03E000
03E000
03E000
03E000
03E000
03E000
03E000
03E000
03E000
03E000
03E000
03E000
03E000
ENDCHAR

STARTCHAR afii10085
ENCODING 227
SWIDTH 556 0
DWIDTH 21 0
BBX 21 28 0 -8
BITMAP
FC01F8
7C01F0
7E03F0
3E03E0
3E03E0
3F07E0
1F07C0
1F07C0
1F8FC0
0F8F80
0F8F80
07DF00
07DF00
07DF00
03FE00
03FE00
01FE00
01FC00
01FC00
00FC00
00F800
01F800
01F800
07F000
3FF000
3FE000
3FC000
3F8000
ENDCHAR

STARTCHAR afii10086
ENCODING 228
SWIDTH 875 0
DWIDTH 33 0
BBX 29 34 2 -7
BITMAP
000F8000
000F8000
000F8000
000F8000
000F8000
000F8000
000F8000
078F8F00
1FEFBFC0
3FF7BFE0
3FFFFFF0
7E3FE3F0
7C1FC1F8
FC0FC1F8
F80F80F8
F80F80F8
F80F80F8
F80F80F8
F80F80F8
F80F80F8
FC0FC1F8
7C1FC1F0
7E3FE3F0
7FFFFFE0
3FF7BFE0
1FEFBFC0
078F8F00
000F8000
000F8000
000F8000
000F8000
000F8000
000F8000
000F8000
ENDCHAR

STARTCHAR afii10087
ENCODING 229
SWIDTH 556 0
DWIDTH 21 0
BBX 21 20 0 0
BITMAP
7E03F0
3F07E0
3F8FE0
1F8FC0
0FDF80
0FFF00
07FF00
03FE00
01FC00
01FC00
01FC00
03FE00
07FF00
07FF00
0FDF80
1F8FC0
1F8FE0
3F07E0
7E03F0
FE03F8
ENDCHAR

STARTCHAR afii10088
ENCODING 230
SWIDTH 615 0
DWIDTH 23 0
BBX 20 25 2 -5
BITMAP
F807C0
F807C0
F807C0
F807C0
F807C0
F807C0
F807C0
F807C0
F807C0
F807C0
F807C0
F807C0
F807C0
F807C0
F807C0
F807C0
FFFFF0
FFFFF0
FFFFF0
FFFFF0
0000F0
0000F0
0000F0
0000F0
0000F0
ENDCHAR

STARTCHAR afii10089
ENCODING 231
SWIDTH 581 0
DWIDTH 22 0
BBX 17 20 2 0
BITMAP
F80F80
F80F80
F80F80
F80F80
F80F80
F80F80
F80F80
FC0F80
FC0F80
7FFF80
3FFF80
1FFF80
07CF80
000F80
000F80
000F80
000F80
000F80
000F80
000F80
ENDCHAR

STARTCHAR afii10090
ENCODING 232
SWIDTH 833 0
DWIDTH 32 0
BBX 26 20 3 0
BITMAP
F83F07C0
F83F07C0
F83F07C0
F83F07C0
F83F07C0
F83F07C0
F83F07C0
F83F07C0
F83F07C0
F83F07C0
F83F07C0
F83F07C0
F83F07C0
F83F07C0
F83F07C0
F83F07C0
FFFFFFC0
FFFFFFC0
FFFFFFC0
FFFFFFC0
ENDCHAR

STARTCHAR afii10091
ENCODING 233
SWIDTH 844 0
DWIDTH 32 0
BBX 28 25 3 -5
BITMAP
F83F07C0
F83F07C0
F83F07C0
F83F07C0
F83F07C0
F83F07C0
F83F07C0
F83F07C0
F83F07C0
F83F07C0
F83F07C0
F83F07C0
F83F07C0
F83F07C0
F83F07C0
F83F07C0
FFFFFFF0
FFFFFFF0
FFFFFFF0
FFFFFFF0
000000F0
000000F0
000000F0
000000F0
000000F0
ENDCHAR

STARTCHAR afii10092
ENCODING 234
SWIDTH 721 0
DWIDTH 27 0
BBX 25 20 0 0
BITMAP
FFF00000
FFF00000
FFF00000
FFF00000
01F00000
01F00000
01F00000
01FFF000
01FFFE00
01FFFF00
01FFFF80
01F01F80
01F00F80
01F00F80
01F00F80
01F01F80
01FFFF00
01FFFF00
01FFFE00
01FFF000
ENDCHAR

STARTCHAR afii10093
ENCODING 235
SWIDTH 840 0
DWIDTH 32 0
BBX 27 20 2 0
BITMAP
F80003E0
F80003E0
F80003E0
F80003E0
F80003E0
F80003E0
F80003E0
FFFC03E0
FFFF83E0
FFFFC3E0
FFFFC3E0
F807E3E0
F803E3E0
F803E3E0
F807E3E0
F807E3E0
FFFFC3E0
FFFFC3E0
FFFF03E0
FFFC03E0
ENDCHAR

STARTCHAR afii10094
ENCODING 236
SWIDTH 598 0
DWIDTH 23 0
BBX 18 20 3 0
BITMAP
F80000
F80000
F80000
F80000
F80000
F80000
F80000
FFF800
FFFF00
FFFF80
FFFFC0
F80FC0
F807C0
F807C0
F807C0
F80FC0
FFFF80
FFFF80
FFFF00
FFF800
ENDCHAR

STARTCHAR afii10095
ENCODING 237
SWIDTH 552 0
DWIDTH 21 0
BBX 19 20 1 0
BITMAP
07F800
1FFE00
3FFF00
7FFF80
7E0F80
3C0FC0
0007C0
0007C0
00FFC0
00FFE0
00FFC0
0007C0
0007C0
7C0FC0
FC0FC0
7E1F80
7FFF80
3FFF00
1FFE00
07F000
ENDCHAR

STARTCHAR afii10096
ENCODING 238
SWIDTH 849 0
DWIDTH 32 0
BBX 28 20 3 0
BITMAP
F801FC00
F807FF00
F80FFF80
F81FFFC0
F83F87E0
F83F03E0
F83E03F0
F87E01F0
FFFE01F0
FFFE01F0
FFFE01F0
FFFE01F0
F87E01F0
F83E03F0
F83F03E0
F83F87E0
F81FFFC0
F80FFFC0
F807FF00
F801FC00
ENDCHAR

STARTCHAR afii10097
ENCODING 239
SWIDTH 583 0
DWIDTH 22 0
BBX 20 20 0 0
BITMAP
03FFF0
0FFFF0
1FFFF0
3FFFF0
3F01F0
3E01F0
3E01F0
3F01F0
3F81F0
1FFFF0
0FFFF0
01FFF0
07F1F0
0FE1F0
0FC1F0
1F81F0
3F01F0
3F01F0
7E01F0
FE01F0
ENDCHAR

STARTCHAR afii61352
ENCODING 240
SWIDTH 1115 0
DWIDTH 42 0
BBX 38 27 3 0
BITMAP
FC00F80000
FC00F80000
FE00F80000
FE00F80000
FF00F80000
FF80F80F80
FF80F83FE0
FFC0F87FF0
FFC0F8FFF8
FFE0F9F8F8
FBF0F9F07C
FBF0F9F07C
F9F8F9F07C
F9F8F9F07C
F8FCF9F07C
F87EF8F8FC
F87EF8FFF8
F83F787FF0
F83FF83FE0
F81FF80F80
F80FF80000
F80FF80000
F807F8FFF8
F807F8FFF8
F803F8FFF8
F801F8FFF8
F801F80000
ENDCHAR

STARTCHAR afii10071
ENCODING 241
SWIDTH 556 0
DWIDTH 21 0
BBX 18 28 1 0
BITMAP
1E1E00
1E1E00
1E1E00
1E1E00
1E1E00
000000
000000
000000
07F000
0FFC00
3FFF00
3FFF00
7E1F80
7C0F80
FC07C0
F807C0
FFFFC0
FFFFC0
FFFFC0
F80000
F80000
FC0600
7C0FC0
7F1F80
3FFF80
1FFF00
0FFE00
03F800
ENDCHAR

STARTCHAR afii10099
ENCODING 242
SWIDTH 611 0
DWIDTH 23 0
BBX 21 35 0 -8
BITMAP
1F0000
1F0000
FFFE00
FFFE00
FFFE00
1F0000
1F0000
1F0FC0
1F3FE0
1F7FF0
1FFFF0
1FC1F8
1F81F8
1F80F8
1F00F8
1F00F8
1F00F8
1F00F8
1F00F8
1F00F8
1F00F8
1F00F8
1F00F8
1F00F8
1F00F8
1F00F8
1F00F8
0000F8
0000F8
0000F8
0009F8
000FF8
000FF0
001FF0
000FC0
ENDCHAR

STARTCHAR afii10100
ENCODING 243
SWIDTH 427 0
DWIDTH 16 0
BBX 13 28 3 0
BITMAP
07E0
0FC0
0F80
1F00
1E00
3C00
0000
0000
FFF8
FFF8
FFF8
FFF8
F800
F800
F800
F800
F800
F800
F800
F800
F800
F800
F800
F800
F800
F800
F800
F800
ENDCHAR

STARTCHAR afii10101
ENCODING 244
SWIDTH 552 0
DWIDTH 21 0
BBX 18 20 2 0
BITMAP
07F800
1FFE00
3FFF00
7FFF80
7E1FC0
FC0F00
F80000
F80000
FFE000
FFE000
FFE000
F80000
F80000
FC0780
FC0FC0
7E1F80
7FFF80
3FFF00
1FFE00
03F800
ENDCHAR

STARTCHAR afii10102
ENCODING 245
SWIDTH 556 0
DWIDTH 21 0
BBX 19 20 0 0
BITMAP
03F800
0FFF00
3FFF80
3FFFC0
7C0FC0
7C0700
7E0000
7FE000
3FFE00
1FFF80
07FFC0
01FFE0
001FE0
0C03E0
FC03E0
7E07E0
3FFFC0
1FFF80
0FFF00
03F800
ENDCHAR

STARTCHAR afii10103
ENCODING 246
SWIDTH 278 0
DWIDTH 11 0
BBX 5 27 3 0
BITMAP
F8
F8
F8
F8
F8
00
00
F8
F8
F8
F8
F8
F8
F8
F8
F8
F8
F8
F8
F8
F8
F8
F8
F8
F8
F8
F8
ENDCHAR

STARTCHAR afii10104
ENCODING 247
SWIDTH 278 0
DWIDTH 11 0
BBX 12 28 -1 0
BITMAP
F0F0
F0F0
F0F0
F0F0
F0F0
0000
0000
0000
0F80
0F80
0F80
0F80
0F80
0F80
0F80
0F80
0F80
0F80
0F80
0F80
0F80
0F80
0F80
0F80
0F80
0F80
0F80
0F80
ENDCHAR

STARTCHAR afii10105
ENCODING 248
SWIDTH 278 0
DWIDTH 11 0
BBX 9 35 -1 -8
BITMAP
0F80
0F80
0F80
0F80
0F80
0000
0000
0F80
0F80
0F80
0F80
0F80
0F80
0F80
0F80
0F80
0F80
0F80
0F80
0F80
0F80
0F80
0F80
0F80
0F80
0F80
0F80
0F80
0F80
1F80
FF80
FF80
FF00
FE00
FC00
ENDCHAR

STARTCHAR afii10106
ENCODING 249
SWIDTH 963 0
DWIDTH 37 0
BBX 34 20 1 0
BITMAP
0FFFF80000
0FFFF80000
0FFFF80000
0FFFF80000
0F80F80000
0F80F80000
0F80F80000
0F80FFF800
0F80FFFF00
0F80FFFF80
0F80FFFFC0
0F80F80FC0
0F80F807C0
0F80F807C0
0F80F807C0
9F80F80FC0
FF80FFFF80
FF00FFFF80
FF00FFFF00
FE00FFF800
ENDCHAR

STARTCHAR afii10107
ENCODING 250
SWIDTH 895 0
DWIDTH 34 0
BBX 30 20 3 0
BITMAP
F81F0000
F81F0000
F81F0000
F81F0000
F81F0000
F81F0000
F81F0000
FFFFFF80
FFFFFFF0
FFFFFFF8
FFFFFFFC
F81F00FC
F81F007C
F81F007C
F81F007C
F81F00FC
F81FFFF8
F81FFFF8
F81FFFF0
F81FFF80
ENDCHAR

STARTCHAR afii10108
ENCODING 251
SWIDTH 611 0
DWIDTH 23 0
BBX 21 27 0 0
BITMAP
1F0000
1F0000
FFFE00
FFFE00
FFFE00
1F0000
1F0000
1F0F80
1F3FE0
1F7FF0
1FFFF8
1FC1F8
1F81F8
1F80F8
1F00F8
1F00F8
1F00F8
1F00F8
1F00F8
1F00F8
1F00F8
1F00F8
1F00F8
1F00F8
1F00F8
1F00F8
1F00F8
ENDCHAR

STARTCHAR afii10109
ENCODING 252
SWIDTH 500 0
DWIDTH 19 0
BBX 16 28 3 0
BITMAP
01F8
01F0
03E0
03C0
0780
0700
0000
0000
F81F
F83F
F87F
F87C
F8F0
F8F0
F8F0
F9E0
FFE0
FF80
FFE0
FBF0
F9F0
F8F8
F8FC
F87C
F87E
F83E
F83F
F81F
ENDCHAR

STARTCHAR section
ENCODING 253
SWIDTH 556 0
DWIDTH 21 0
BBX 19 36 1 -8
BITMAP
03F800
0FFE00
1FFF00
3FFF00
3F1F80
3E0F80
3E0F00
3F0000
3F8000
0FE000
1FF000
3FFC00
7FFE00
7CFF00
F87F80
F81FC0
F80FC0
FC07E0
7E03E0
7F03E0
3FC3E0
1FE7C0
0FFFC0
03FF80
01FE00
007F00
003F80
000F80
000FC0
7E07C0
7E07C0
3F0FC0
3FFF80
1FFF80
0FFE00
03F800
ENDCHAR

STARTCHAR afii10110
ENCODING 254
SWIDTH 556 0
DWIDTH 21 0
BBX 21 35 0 -8
BITMAP
0E0380
0F0780
07FF00
03FE00
00F800
000000
000000
FC01F8
7C01F0
7E03F0
3E03E0
3E03E0
3F07E0
1F07C0
1F07C0
1F8FC0
0F8F80
0F8F80
07DF00
07DF00
07DF00
03FE00
03FE00
01FE00
01FC00
01FC00
00FC00
00F800
01F800
01F800
07F000
3FF000
3FE000
3FC000
3F8000
ENDCHAR

STARTCHAR afii10193
ENCODING 255
SWIDTH 604 0
DWIDTH 23 0
BBX 18 28 2 -8
BITMAP
F807C0
F807C0
F807C0
F807C0
F807C0
F807C0
F807C0
F807C0
F807C0
F807C0
F807C0
F807C0
F807C0
F807C0
F807C0
F807C0
FFFFC0
FFFFC0
FFFFC0
FFFFC0
01E000
01E000
01E000
01E000
01E000
01E000
01E000
01E000
ENDCHAR
ENDFONT
